<svg width="89" height="149" viewBox="0 0 89 149" fill="none" xmlns="http://www.w3.org/2000/svg">
<path opacity="0.77" d="M84.5152 146.526L48.2025 102.379L11.8898 146.526C11.8898 146.526 11.716 20.3711 11.8898 10.0691C12.0636 -0.261916 17.8869 2.32812 17.8869 2.32812H78.5181C78.5181 2.32812 84.3414 -0.261916 84.5152 10.0691C84.689 20.3711 84.5152 146.526 84.5152 146.526Z" fill="#61AEC7"/>
<path opacity="0.77" d="M77.4578 146.526L41.1451 102.379L4.83244 146.526C4.83244 146.526 4.65862 20.3711 4.83244 10.0691C5.00627 -0.261916 10.8295 2.32812 10.8295 2.32812H71.4608C71.4608 2.32812 77.284 -0.261916 77.4578 10.0691C77.6317 20.3711 77.4578 146.526 77.4578 146.526Z" fill="#C70759"/>
<path d="M80.7084 146.526L44.3957 102.379L8.08299 146.526C8.08299 146.526 7.90917 20.3711 8.08299 10.0691C8.25682 -0.261916 14.0801 2.32812 14.0801 2.32812H74.7113C74.7113 2.32812 80.5345 -0.261916 80.7084 10.0691C80.8822 20.3711 80.7084 146.526 80.7084 146.526Z" fill="#1D1D1D"/>
<path d="M44 52H26M44 30V52V30ZM44 52V74V52ZM44 52H62H44Z" stroke="white" stroke-width="4" stroke-linecap="round" stroke-linejoin="round"/>
</svg>
