<svg width="36" height="33" viewBox="0 0 36 33" fill="none" xmlns="http://www.w3.org/2000/svg">
<path d="M20.9482 8.314C20.0912 8.382 19.1012 8.45 18.1112 8.583C16.5952 8.778 15.0792 9.044 13.8272 9.636C11.3882 10.63 9.7392 12.741 9.7392 15.845C9.7392 19.743 12.2452 21.72 15.4082 21.72C16.4652 21.72 17.3212 21.591 18.1112 21.392C19.3662 20.996 20.4212 20.269 21.6732 18.951C22.4002 19.941 22.5962 20.404 23.8502 21.46C24.1792 21.593 24.5082 21.593 24.7722 21.394C25.5632 20.735 26.9462 19.546 27.6732 18.886C28.0012 18.619 27.9362 18.226 27.7392 17.894C27.0122 16.97 26.2892 16.176 26.2892 14.396V8.453C26.2892 5.94 26.4842 3.631 24.6422 1.916C23.1242 0.525 20.7512 0 18.9072 0C18.6432 0 18.3802 0 18.1152 0C14.7532 0.197 11.1942 1.647 10.4012 5.811C10.2712 6.336 10.6682 6.537 10.9312 6.604L14.6222 7.068C15.0182 6.998 15.2152 6.67 15.2802 6.338C15.6132 4.889 16.7982 4.162 18.1162 4.029C18.1832 4.029 18.2492 4.029 18.3812 4.029C19.1712 4.029 20.0272 4.361 20.4902 5.016C21.0132 5.811 20.9512 6.869 20.9512 7.791L20.9482 8.314ZM20.2232 16.172C19.7622 17.097 18.9702 17.691 18.1132 17.89C17.9822 17.89 17.7862 17.958 17.5872 17.958C16.1372 17.958 15.2772 16.835 15.2772 15.183C15.2772 13.073 16.5312 12.079 18.1132 11.618C18.9702 11.421 19.9602 11.353 20.9492 11.353V12.146C20.9482 13.666 21.0102 14.853 20.2232 16.172ZM35.4182 25.341V25.556C35.3832 26.847 34.7022 29.324 33.0902 30.687C32.7682 30.937 32.4452 30.794 32.5872 30.433C33.0562 29.288 34.1282 26.63 33.6272 26.021C33.2722 25.556 31.8012 25.591 30.5482 25.699C29.9762 25.771 29.4732 25.804 29.0792 25.882C28.7222 25.915 28.6482 25.595 29.0082 25.345C29.4742 25.022 29.9772 24.772 30.5492 24.589C32.5882 23.981 34.9552 24.339 35.2782 24.735C35.3482 24.837 35.4182 25.052 35.4182 25.341ZM32.0162 27.851C31.5502 28.208 31.0512 28.533 30.5482 28.824C26.7872 31.085 21.9172 32.265 17.6922 32.265C10.8852 32.265 4.7972 29.753 0.178195 25.556C-0.217805 25.232 0.105195 24.767 0.571195 25.017C5.5492 27.923 11.7092 29.683 18.0842 29.683C22.0972 29.683 26.4262 28.929 30.5472 27.312C30.8322 27.208 31.1552 27.06 31.4422 26.956C32.0872 26.665 32.6612 27.388 32.0162 27.851Z" fill="white"/>
</svg>
