<svg width="24" height="24" viewBox="0 0 24 24" fill="none" xmlns="http://www.w3.org/2000/svg">
<g clip-path="url(#clip0_120_24)">
<path d="M12 22C17.5228 22 22 17.5228 22 12C22 6.47715 17.5228 2 12 2C6.47715 2 2 6.47715 2 12C2 17.5228 6.47715 22 12 22Z" stroke="#BBBBBB" stroke-width="2" stroke-linecap="round" stroke-linejoin="round"/>
<path d="M12.6055 15.7109C13.0352 15.7109 13.4323 15.623 13.7969 15.4473C14.1615 15.2715 14.4609 15.0306 14.6953 14.7246C14.9297 14.4121 15.0632 14.0573 15.0957 13.6602H16.8145C16.7819 14.2852 16.5703 14.8678 16.1797 15.4082C15.7956 15.9421 15.291 16.375 14.666 16.707C14.041 17.0326 13.3542 17.1953 12.6055 17.1953C11.8112 17.1953 11.1178 17.0553 10.5254 16.7754C9.93945 16.4954 9.45117 16.1113 9.06055 15.623C8.67643 15.1348 8.38672 14.5749 8.19141 13.9434C8.0026 13.3053 7.9082 12.6315 7.9082 11.9219V11.5117C7.9082 10.8021 8.0026 10.1315 8.19141 9.5C8.38672 8.86198 8.67643 8.29883 9.06055 7.81055C9.45117 7.32227 9.93945 6.93815 10.5254 6.6582C11.1178 6.37826 11.8112 6.23828 12.6055 6.23828C13.4323 6.23828 14.1549 6.40755 14.7734 6.74609C15.3919 7.07812 15.877 7.53385 16.2285 8.11328C16.5866 8.6862 16.7819 9.33724 16.8145 10.0664H15.0957C15.0632 9.63021 14.9395 9.23633 14.7246 8.88477C14.5163 8.5332 14.2298 8.25326 13.8652 8.04492C13.5072 7.83008 13.0872 7.72266 12.6055 7.72266C12.0521 7.72266 11.5866 7.83333 11.209 8.05469C10.8379 8.26953 10.5417 8.5625 10.3203 8.93359C10.1055 9.29818 9.94922 9.70508 9.85156 10.1543C9.76042 10.597 9.71484 11.0495 9.71484 11.5117V11.9219C9.71484 12.3841 9.76042 12.8398 9.85156 13.2891C9.94271 13.7383 10.0957 14.1452 10.3105 14.5098C10.5319 14.8743 10.8281 15.1673 11.1992 15.3887C11.5768 15.6035 12.0456 15.7109 12.6055 15.7109Z" fill="#BBBBBB"/>
</g>
<defs>
<clipPath id="clip0_120_24">
<rect width="24" height="24" fill="white"/>
</clipPath>
</defs>
</svg>
