<svg width="22" height="22" viewBox="0 0 22 22" fill="none" xmlns="http://www.w3.org/2000/svg">
<path d="M15.6826 1.00036H18.3526C18.9186 0.990352 19.4685 1.1885 19.8981 1.55718C20.3276 1.92586 20.6068 2.43942 20.6826 3.00036V10.0004C20.6068 10.5613 20.3276 11.0749 19.8981 11.4435C19.4685 11.8122 18.9186 12.0104 18.3526 12.0004H15.6826M8.68265 14.0004V18.0004C8.68265 18.796 8.99872 19.5591 9.56133 20.1217C10.1239 20.6843 10.887 21.0004 11.6826 21.0004L15.6826 12.0004V1.00036H4.40265C3.92032 0.994909 3.45227 1.16396 3.08474 1.47636C2.71721 1.78875 2.47497 2.22346 2.40265 2.70036L1.02265 11.7004C0.97914 11.987 0.998473 12.2797 1.07931 12.5581C1.16014 12.8365 1.30055 13.0941 1.49079 13.3128C1.68103 13.5316 1.91657 13.7064 2.18108 13.8251C2.44558 13.9439 2.73274 14.0036 3.02265 14.0004H8.68265Z" stroke="white" stroke-width="2" stroke-linecap="round" stroke-linejoin="round"/>
</svg>
