<svg width="89" height="98" viewBox="0 0 89 98" fill="none" xmlns="http://www.w3.org/2000/svg">
<path opacity="0.77" d="M84.5152 96.3731L48.2025 67.3367L11.8898 96.3731C11.8898 96.3731 11.716 13.3984 11.8898 6.62266C12.0636 -0.172263 17.8869 1.53125 17.8869 1.53125H78.5181C78.5181 1.53125 84.3414 -0.172263 84.5152 6.62266C84.689 13.3984 84.5152 96.3731 84.5152 96.3731Z" fill="#61AEC7"/>
<path opacity="0.77" d="M77.4578 96.3731L41.1451 67.3367L4.83244 96.3731C4.83244 96.3731 4.65862 13.3984 4.83244 6.62266C5.00627 -0.172263 10.8295 1.53125 10.8295 1.53125H71.4608C71.4608 1.53125 77.284 -0.172263 77.4578 6.62266C77.6317 13.3984 77.4578 96.3731 77.4578 96.3731Z" fill="#C70759"/>
<path d="M80.7084 96.3731L44.3957 67.3367L8.08299 96.3731C8.08299 96.3731 7.90917 13.3984 8.08299 6.62266C8.25682 -0.172263 14.0801 1.53125 14.0801 1.53125H74.7113C74.7113 1.53125 80.5345 -0.172263 80.7084 6.62266C80.8822 13.3984 80.7084 96.3731 80.7084 96.3731Z" fill="#1D1D1D"/>
<path d="M44.5 34.5H32M44.5 20V34.5V20ZM44.5 34.5V49V34.5ZM44.5 34.5H57H44.5Z" stroke="white" stroke-width="4" stroke-linecap="round" stroke-linejoin="round"/>
</svg>
