<svg width="80" height="16" viewBox="0 0 80 16" fill="none" xmlns="http://www.w3.org/2000/svg">
<path d="M8 3.61352L8.95839 6.36519L9.1337 6.8685H9.66666H12.5206L10.3106 8.62805L9.91739 8.94114L10.0575 9.42385L10.8685 12.2179L8.41984 10.5637L8 10.2801L7.58015 10.5637L5.13154 12.2179L5.94249 9.42385L6.0826 8.94114L5.68937 8.62805L3.47941 6.8685H6.33333H6.86629L7.0416 6.36519L8 3.61352Z" fill="white" stroke="white" stroke-width="1.5"/>
<path d="M24 3.61352L24.9584 6.36519L25.1337 6.8685H25.6667H28.5206L26.3106 8.62805L25.9174 8.94114L26.0575 9.42385L26.8685 12.2179L24.4198 10.5637L24 10.2801L23.5802 10.5637L21.1315 12.2179L21.9425 9.42385L22.0826 8.94114L21.6894 8.62805L19.4794 6.8685H22.3333H22.8663L23.0416 6.36519L24 3.61352Z" fill="white" stroke="white" stroke-width="1.5"/>
<path d="M40 3.61352L40.9584 6.36519L41.1337 6.8685H41.6667H44.5206L42.3106 8.62805L41.9174 8.94114L42.0575 9.42385L42.8685 12.2179L40.4198 10.5637L40 10.2801L39.5802 10.5637L37.1315 12.2179L37.9425 9.42385L38.0826 8.94114L37.6894 8.62805L35.4794 6.8685H38.3333H38.8663L39.0416 6.36519L40 3.61352Z" fill="white" stroke="white" stroke-width="1.5"/>
<path d="M56 3.61352L56.9584 6.36519L57.1337 6.8685H57.6667H60.5206L58.3106 8.62805L57.9174 8.94114L58.0575 9.42385L58.8685 12.2179L56.4198 10.5637L56 10.2801L55.5802 10.5637L53.1315 12.2179L53.9425 9.42385L54.0826 8.94114L53.6894 8.62805L51.4794 6.8685H54.3333H54.8663L55.0416 6.36519L56 3.61352Z" fill="white" stroke="white" stroke-width="1.5"/>
<path d="M72 3.61352L72.9584 6.36519L73.1337 6.8685H73.6667H76.5206L74.3106 8.62805L73.9174 8.94114L74.0575 9.42385L74.8685 12.2179L72.4198 10.5637L72 10.2801L71.5802 10.5637L69.1315 12.2179L69.9425 9.42385L70.0826 8.94114L69.6894 8.62805L67.4794 6.8685H70.3333H70.8663L71.0416 6.36519L72 3.61352Z" fill="white" stroke="white" stroke-width="1.5"/>
</svg>
