<svg width="28" height="29" viewBox="0 0 28 29" fill="none" xmlns="http://www.w3.org/2000/svg">
<path d="M14 10.875C13.0736 10.8813 12.1869 11.2653 11.5319 11.9437C10.8768 12.6222 10.5061 13.5405 10.5 14.5C10.5 16.4841 12.0843 18.125 14 18.125C15.9145 18.125 17.5 16.4841 17.5 14.5C17.5 12.5171 15.9145 10.875 14 10.875Z" fill="white"/>
<path d="M14 6.04166C5.09482 6.04166 2.41849 14.0372 2.39399 14.1182L2.27032 14.5L2.39282 14.8818C2.41849 14.9628 5.09482 22.9583 14 22.9583C22.9052 22.9583 25.5815 14.9628 25.606 14.8818L25.7297 14.5L25.6072 14.1182C25.5815 14.0372 22.9052 6.04166 14 6.04166ZM14 20.5417C7.75716 20.5417 5.33866 15.8944 4.75299 14.5C5.34099 13.1007 7.76066 8.45833 14 8.45833C20.2428 8.45833 22.6613 13.1056 23.247 14.5C22.659 15.8992 20.2393 20.5417 14 20.5417Z" fill="white"/>
</svg>
